<svg xmlns="http://www.w3.org/2000/svg" width="150" height="35.927" viewBox="0 0 150 35.927">
  <g id="Merlin_Logo" data-name="Merlin Logo" transform="translate(-242 -49.001)">
    <path id="Path_16" data-name="Path 16" d="M34.5,194.883V226.26H28.155V205.851L19.677,226.26H14.871L6.347,205.851V226.26H0V194.883H7.208l10.066,23.331,10.065-23.331Z" transform="translate(242 -141.738)" fill="#fff"/>
    <path id="Path_17" data-name="Path 17" d="M168.082,232.044H149.72a6.161,6.161,0,0,0,1.9,4.226,5.9,5.9,0,0,0,4.126,1.528,5.188,5.188,0,0,0,5.033-3.012h6.847a11.345,11.345,0,0,1-4.172,5.911,12.251,12.251,0,0,1-7.572,2.314,13.187,13.187,0,0,1-6.506-1.6,11.28,11.28,0,0,1-4.489-4.518,13.749,13.749,0,0,1-1.609-6.743,14.01,14.01,0,0,1,1.587-6.789,11.029,11.029,0,0,1,4.443-4.494,14.372,14.372,0,0,1,12.989-.045,10.8,10.8,0,0,1,4.4,4.337,13.04,13.04,0,0,1,1.565,6.451,14.874,14.874,0,0,1-.181,2.428m-6.393-4.226a4.972,4.972,0,0,0-1.768-3.888,6.3,6.3,0,0,0-4.217-1.462,5.79,5.79,0,0,0-3.967,1.417,6.2,6.2,0,0,0-1.972,3.933Z" transform="translate(137.846 -158.084)" fill="#fff"/>
    <path id="Path_18" data-name="Path 18" d="M261.242,218.587a8.949,8.949,0,0,1,4.511-1.124v6.609h-1.677a6.466,6.466,0,0,0-4.511,1.394q-1.519,1.393-1.518,4.854v12.408H251.7V220.806l6.348-2.984v3.866a8.884,8.884,0,0,1,3.2-3.1" transform="translate(59.035 -158.203)" fill="#fff"/>
    <path id="Path_19" data-name="Path 19" d="M325.12,187.91v33.266h-6.348V191.351Z" transform="translate(10.277 -136.652)" fill="#fff"/>
    <path id="Path_20" data-name="Path 20" d="M363.551,186.922a3.667,3.667,0,0,1,0-5.26,4.208,4.208,0,0,1,5.575,0,3.667,3.667,0,0,1,0,5.26,4.209,4.209,0,0,1-5.575,0m5.917,4.023v24.9h-6.348V194.3Z" transform="translate(-21.467 -131.328)" fill="#fff"/>
    <path id="Path_21" data-name="Path 21" d="M426.8,217.6a12.658,12.658,0,0,0-1.794-.132,10.119,10.119,0,0,0-4.33.921,8.744,8.744,0,0,0-3.241,2.541v-3.1l-6.348,3.3v21.606h6.348V230.451a6.365,6.365,0,0,1,1.519-4.564,5.457,5.457,0,0,1,4.148-1.6,5.328,5.328,0,0,1,4.081,1.6,6.426,6.426,0,0,1,1.5,4.564v12.277h6.348V228.117a15.891,15.891,0,0,0-.143-2.106Z" transform="translate(-56.828 -158.205)" fill="#fff"/>
    <path id="Path_22" data-name="Path 22" d="M485.453,201.624c.063-.255.132-.51.2-.761l.569-2.341c-.338-1.178-.835-2.815-1.159-3.9q-.97-3.259-1.936-6.52c-.044-.147-.351-.821-.28-.9.376-.442,1.015-1.175,1.467-1.645.874,2.939,1.838,6.9,2.69,9.757l.745-3.062c-.617-2.118-1.415-4.8-2.022-6.864a8.688,8.688,0,0,1-.432-1.474c.376-.441,1.18.17,1.635-.3L488.544,189l.747-3.071c-.287-1-.718-2.437-.978-3.329-.034-.12-.6-.307-.539-.375.383-.435,1.312-.842,1.768-1.317l.536,1.789.757-3.114-2.937,1.842c-2.333,2.418-4.958,4.771-7.244,7.144-.115.121-.638-.014-.757-.032-.562-.09-1.117-.257-1.771-.41l4.952-5.911c-.286.054.115.237-.164.289l-1.2.015c-1.531,1.576-4.017,3.617-5.523,5.175-.125.129.132.021,0,0-.563-.089-1.152-.271-1.8-.426l2.838-3.076-1.811.357c-.723.776-2.366,1.7-2.95,2.294-.095.1.1.019,0,0-.558-.1-1.1-.256-1.771-.417l-.042-.463-1.785.041,2.293,2.162c2.974.644,7.82,1.94,10.766,2.657.143.034.341.127.382.238.187.52.327,1.056.51,1.669-2.956-.708-6.193-1.456-9.094-2.149l2.275,2.144c2.163.525,4.814,1.154,6.938,1.673.158.038.388.12.43.237.192.519.329,1.057.513,1.682-1.743-.417-3.733-.876-5.423-1.278l2.3,2.166c.991.252,2.391.568,3.327.8.121.03.305.083.335.168.189.545.343,1.1.532,1.729-.538-.121-1.2-.283-1.777-.417Z" transform="translate(-98.836 -130.582)" fill="#e82736"/>
    <path id="Path_23" data-name="Path 23" d="M516.516,208.554l3.293,11.095-.775,3.1-3.961-13.435Z" transform="translate(-132.418 -151.709)" fill="#2f945e"/>
    <path id="Path_24" data-name="Path 24" d="M526.426,198.176l2.188,7.629-.745,3.063-2.785-9.325Z" transform="translate(-139.695 -144.141)" fill="#2f945e"/>
    <path id="Path_25" data-name="Path 25" d="M534.613,187.977l1.718,5.622.748-3.072-1.334-4.64Z" transform="translate(-146.623 -135.178)" fill="#2f945e"/>
    <path id="Path_26" data-name="Path 26" d="M544.358,180.714l.591,1.979.754-3.116Z" transform="translate(-153.709 -130.576)" fill="#2f945e"/>
    <path id="Path_27" data-name="Path 27" d="M509.2,188.54h0l7.627-7.989,3.318-.973-9.107,9.382Z" transform="translate(-128.15 -130.578)" fill="#fd9300"/>
    <path id="Path_28" data-name="Path 28" d="M503.876,186.879l-6.254,6.568-1.93-.432,5.2-5.351Z" transform="translate(-118.332 -135.902)" fill="#fd9300"/>
    <path id="Path_29" data-name="Path 29" d="M487.769,193.237l-3.8,3.989-1.922-.425,2.521-2.629Z" transform="translate(-108.416 -140.539)" fill="#fd9300"/>
    <path id="Path_30" data-name="Path 30" d="M471.89,200.041l-1.187,1.3-1.827-.422Z" transform="translate(-98.836 -145.5)" fill="#fd9300"/>
  </g>
</svg>
