<svg id="Group_23" data-name="Group 23" xmlns="http://www.w3.org/2000/svg" xmlns:xlink="http://www.w3.org/1999/xlink" width="84.345" height="100" viewBox="0 0 84.345 100">
  <defs>
    <clipPath id="clip-path">
      <rect id="Rectangle_36" data-name="Rectangle 36" width="84.345" height="100" fill="none"/>
    </clipPath>
  </defs>
  <g id="Group_22" data-name="Group 22" transform="translate(0 0)" clip-path="url(#clip-path)">
    <path id="Path_54" data-name="Path 54" d="M4.435,94.81V51.036q0-13.986-.007-27.971a1.616,1.616,0,0,1,.81-1.514q6.673-4.233,13.328-8.5a1.984,1.984,0,0,1,1.377-.3q10.2,1.177,20.405,2.34a1.351,1.351,0,0,1,1.377,1.521q.009,4.2,0,8.391A1.314,1.314,0,0,1,40.4,26.5c-.807,0-1.308-.568-1.309-1.5,0-2.26-.011-4.52.01-6.778,0-.453-.09-.634-.6-.691-5.753-.637-11.5-1.307-17.255-1.967-.123-.013-.246,0-.443,0v41.63q0,18.368,0,36.74c0,.978-.162.877.893.878q4.491.005,8.983,0h.648c.013-.244.034-.449.034-.655q0-27.865-.011-55.729a1.839,1.839,0,0,1,1.229-1.9c4.422-2,8.828-4.045,13.234-6.08a1.346,1.346,0,0,1,1.47.085,1.229,1.229,0,0,1,.5,1.229,1.292,1.292,0,0,1-.821,1.045q-3.856,1.773-7.708,3.561c-1.577.729-3.149,1.473-4.737,2.176a.771.771,0,0,0-.524.843q.018,16,.008,32.005,0,11.376,0,22.754v.626H45.087c.01-.208.026-.4.026-.589q.013-8.769.024-17.536.013-6.965.036-13.931A1.314,1.314,0,0,1,46.5,61.272a1.3,1.3,0,0,1,1.3,1.452q-.014,11.726-.035,23.452-.007,4.116,0,8.231c0,.106.018.211.031.36H66c.008-.166.026-.338.026-.511q0-11.726,0-23.453,0-9.2,0-18.4a7.19,7.19,0,0,1,.032-.966,1.252,1.252,0,0,1,1.355-1.108,1.288,1.288,0,0,1,1.242,1.187,4.275,4.275,0,0,1,.006.43V94.81h1.4c.555,0,1.111-.012,1.667.007a1.306,1.306,0,0,1,.049,2.607c-.214.018-.43.008-.645.008H11.641q-5.082,0-10.166,0A1.3,1.3,0,0,1,0,96.1a1.275,1.275,0,0,1,1.307-1.284c.824-.014,1.649,0,2.475,0Zm2.633,0h.682c3.263,0,6.526-.012,9.789.012.523,0,.656-.141.656-.657q-.022-17.078-.011-34.157,0-21.437,0-42.873v-.648c-.2.1-.329.157-.443.231-3.37,2.148-6.732,4.308-10.113,6.437a1.1,1.1,0,0,0-.573,1.075q.027,11.43.013,22.862,0,23.427,0,46.854Z" transform="translate(0 2.565)" fill="#005cac"/>
    <path id="Path_55" data-name="Path 55" d="M70.91,4.35c1.968-.124,5.55,2.434,5.81,5.255a5.98,5.98,0,0,1-1.2,4.23c-2.409,3.322-4.789,6.665-7.181,10Q58.6,37.418,48.863,51.012a3.6,3.6,0,0,1-1.534,1.271c-2.49,1.1-4.965,2.238-7.447,3.358-1.334.6-2.275-.065-2.135-1.513.28-2.889.557-5.78.869-8.667a2.267,2.267,0,0,1,.414-1.021q7.83-10.956,15.686-21.894,5.7-7.951,11.4-15.9a5.548,5.548,0,0,1,4.79-2.3M47.071,48.889Q59.217,31.953,71.321,15.072c-.255-.186-.469-.344-.684-.5-.684-.491-1.374-.974-2.051-1.475a1.311,1.311,0,0,1-.5-1.431,1.2,1.2,0,0,1,1.1-.957,2.4,2.4,0,0,1,1.18.383c.854.548,1.661,1.169,2.543,1.8a14.065,14.065,0,0,0,.929-1.426,2.561,2.561,0,0,0-.513-2.977,9.222,9.222,0,0,0-1.1-.861,2.682,2.682,0,0,0-3.989.67Q62.8,15.877,57.367,23.456q-7.579,10.569-15.174,21.13a5.271,5.271,0,0,0-1.122,2.925c-.083,1.587-.292,3.168-.457,4.856l4.1-1.856c-.459-.335-.848-.616-1.234-.9a1.371,1.371,0,0,1-.47-1.991,1.385,1.385,0,0,1,2.042-.178c.661.461,1.311.938,2.022,1.448" transform="translate(7.598 0.875)" fill="#005cac"/>
    <path id="Path_56" data-name="Path 56" d="M16.7,3.89c-.25.167-.4.258-.536.359-1.913,1.392-3.819,2.792-5.738,4.172a.858.858,0,0,0-.411.792c.014,2.654.008,5.306.006,7.959a1.349,1.349,0,0,1-1.227,1.49,1.323,1.323,0,0,1-1.413-1.409c-.007-2.385,0-4.768,0-7.153V8.11A1.351,1.351,0,0,1,7.96,6.96C11.03,4.721,14.09,2.47,17.18.263a1.712,1.712,0,0,1,1.2-.238c4.88.994,9.749,2.027,14.621,3.057A1.351,1.351,0,0,1,34.216,4.6q.007,4.356,0,8.712A1.357,1.357,0,0,1,32.9,14.831c-.8.007-1.325-.605-1.325-1.555,0-2.438-.007-4.876.007-7.314,0-.339-.073-.509-.437-.585C27.393,4.6,23.644,3.8,19.894,3.014c-.168-.035-.342-.058-.577-.1v.858q0,3.846,0,7.69a1.256,1.256,0,0,1-.8,1.277,1.152,1.152,0,0,1-1.425-.285,1.991,1.991,0,0,1-.376-1.121C16.681,9.1,16.7,6.856,16.7,4.616Z" transform="translate(1.486 0)" fill="#005cac"/>
    <path id="Path_57" data-name="Path 57" d="M22.124,77.272c0,.477.01.885,0,1.293a1.323,1.323,0,1,1-2.643-.006q-.016-1.37.007-2.739a1.316,1.316,0,0,1,1.562-1.349c.676.077,1.354.144,2.027.241a1.315,1.315,0,1,1-.278,2.613c-.195-.011-.388-.03-.673-.053" transform="translate(3.921 14.993)" fill="#005cac"/>
    <path id="Path_58" data-name="Path 58" d="M23.024,8.255c0,.517.01.943,0,1.37a1.286,1.286,0,0,1-1.254,1.334A1.263,1.263,0,0,1,20.4,9.678c-.032-.983-.034-1.969,0-2.952a1.246,1.246,0,0,1,1.43-1.252c.73.052,1.461.137,2.186.235a1.3,1.3,0,0,1,1.171,1.514,1.315,1.315,0,0,1-1.516,1.11c-.193-.019-.387-.047-.654-.079" transform="translate(4.104 1.102)" fill="#005cac"/>
    <path id="Path_59" data-name="Path 59" d="M51.425,56.278c0,.507.013.935,0,1.361a1.291,1.291,0,0,1-1.265,1.334A1.278,1.278,0,0,1,48.8,57.684c-.034-.966-.035-1.937,0-2.9a1.286,1.286,0,0,1,1.516-1.287c.678.059,1.355.137,2.029.227a1.323,1.323,0,0,1,1.26,1.5,1.343,1.343,0,0,1-1.617,1.114c-.157-.019-.316-.034-.56-.06" transform="translate(9.82 10.77)" fill="#005cac"/>
    <path id="Path_60" data-name="Path 60" d="M22.121,70.285c0,.463.01.888,0,1.313a1.317,1.317,0,1,1-2.633,0c-.012-.913-.019-1.827,0-2.74a1.306,1.306,0,0,1,1.582-1.376c.624.066,1.247.132,1.868.215.938.125,1.427.673,1.338,1.479s-.69,1.23-1.628,1.147c-.155-.013-.31-.022-.53-.037" transform="translate(3.921 13.586)" fill="#005cac"/>
    <path id="Path_61" data-name="Path 61" d="M29,21.331c0,.5.01.914,0,1.325a1.319,1.319,0,1,1-2.637-.012c-.013-.913-.012-1.828,0-2.742a1.28,1.28,0,0,1,1.488-1.365c.732.056,1.462.141,2.19.243a1.311,1.311,0,0,1-.29,2.606c-.227-.011-.454-.032-.751-.055" transform="translate(5.306 3.732)" fill="#005cac"/>
    <path id="Path_62" data-name="Path 62" d="M22.122,28.306c0,.493.006.9,0,1.311A1.322,1.322,0,0,1,20.8,31.008a1.3,1.3,0,0,1-1.314-1.395c-.006-.932,0-1.865.014-2.8a1.225,1.225,0,0,1,1.34-1.282c.786.044,1.571.127,2.351.24a1.312,1.312,0,0,1-.347,2.6c-.213-.017-.425-.041-.718-.07" transform="translate(3.922 5.141)" fill="#005cac"/>
    <path id="Path_63" data-name="Path 63" d="M22.123,35.3c0,.475.01.9,0,1.324A1.3,1.3,0,0,1,20.84,38a1.289,1.289,0,0,1-1.35-1.35q-.04-1.42,0-2.842a1.245,1.245,0,0,1,1.348-1.284,23.956,23.956,0,0,1,2.4.25,1.287,1.287,0,0,1,1.054,1.505,1.312,1.312,0,0,1-1.421,1.1c-.226-.016-.452-.043-.741-.072" transform="translate(3.92 6.548)" fill="#005cac"/>
    <path id="Path_64" data-name="Path 64" d="M22.119,42.3c0,.475.01.9,0,1.325a1.317,1.317,0,1,1-2.632,0c-.012-.931-.013-1.863,0-2.8a1.26,1.26,0,0,1,1.373-1.321c.786.044,1.573.13,2.351.25a1.289,1.289,0,0,1,1.075,1.494,1.307,1.307,0,0,1-1.413,1.117c-.227-.012-.453-.043-.753-.072" transform="translate(3.922 7.955)" fill="#005cac"/>
    <path id="Path_65" data-name="Path 65" d="M22.123,56.294c0,.449.006.855,0,1.261a1.322,1.322,0,0,1-1.291,1.42,1.3,1.3,0,0,1-1.348-1.414q-.013-1.344,0-2.689a1.3,1.3,0,0,1,1.531-1.378q1.043.1,2.083.231a1.323,1.323,0,1,1-.274,2.631c-.21-.012-.419-.037-.7-.062" transform="translate(3.922 10.77)" fill="#005cac"/>
    <path id="Path_66" data-name="Path 66" d="M22.122,63.274c0,.5.012.926,0,1.352a1.319,1.319,0,1,1-2.637-.03c-.011-.912-.013-1.824,0-2.737a1.314,1.314,0,0,1,1.535-1.372c.676.068,1.352.139,2.025.223a1.324,1.324,0,1,1-.256,2.632c-.2-.016-.389-.041-.664-.068" transform="translate(3.921 12.178)" fill="#005cac"/>
    <path id="Path_67" data-name="Path 67" d="M51.41,63.278c0,.512.017.956,0,1.4a1.241,1.241,0,0,1-1.241,1.283,1.224,1.224,0,0,1-1.354-1.216c-.046-1.019-.04-2.042,0-3.062a1.244,1.244,0,0,1,1.374-1.2c.766.056,1.534.147,2.293.267a1.3,1.3,0,0,1-.278,2.591c-.231-.008-.46-.032-.793-.058" transform="translate(9.822 12.177)" fill="#005cac"/>
    <path id="Path_68" data-name="Path 68" d="M22.123,49.285c0,.466.007.875,0,1.282a1.3,1.3,0,0,1-1.3,1.413,1.276,1.276,0,0,1-1.334-1.367c-.024-.931-.028-1.865,0-2.8A1.266,1.266,0,0,1,20.926,46.5c.75.053,1.5.136,2.243.249a1.275,1.275,0,0,1,1.115,1.507,1.309,1.309,0,0,1-1.473,1.1c-.2-.016-.39-.042-.687-.074" transform="translate(3.921 9.363)" fill="#005cac"/>
    <path id="Path_69" data-name="Path 69" d="M22.12,21.329c0,.483.011.893,0,1.3a1.332,1.332,0,0,1-1.329,1.391,1.316,1.316,0,0,1-1.306-1.407q-.014-1.344,0-2.689A1.292,1.292,0,0,1,21,18.54c.73.06,1.462.139,2.189.244a1.31,1.31,0,0,1-.245,2.6c-.247,0-.495-.035-.825-.059" transform="translate(3.922 3.732)" fill="#005cac"/>
    <path id="Path_70" data-name="Path 70" d="M29,28.311c0,.5.011.925,0,1.352a1.317,1.317,0,1,1-2.635.012c-.016-.95-.018-1.9,0-2.851a1.267,1.267,0,0,1,1.4-1.3c.769.049,1.535.138,2.3.247a1.316,1.316,0,0,1-.282,2.614c-.232-.01-.461-.044-.781-.076" transform="translate(5.306 5.139)" fill="#005cac"/>
    <path id="Path_71" data-name="Path 71" d="M51.421,77.272c0,.52.014.949,0,1.376a1.3,1.3,0,0,1-1.288,1.311,1.249,1.249,0,0,1-1.319-1.212c-.049-1.036-.046-2.077,0-3.114a1.248,1.248,0,0,1,1.407-1.171c.748.066,1.5.154,2.239.267A1.262,1.262,0,0,1,53.6,76.162a1.287,1.287,0,0,1-1.416,1.167c-.227-.008-.455-.032-.759-.056" transform="translate(9.821 14.992)" fill="#005cac"/>
    <path id="Path_72" data-name="Path 72" d="M51.424,49.3c0,.475.01.9,0,1.324a1.316,1.316,0,1,1-2.632.048c-.026-.967-.025-1.935.012-2.9A1.252,1.252,0,0,1,50.223,46.5c.75.049,1.5.139,2.243.25a1.278,1.278,0,0,1,1.13,1.445,1.3,1.3,0,0,1-1.421,1.169c-.227-.011-.453-.04-.752-.067" transform="translate(9.821 9.362)" fill="#005cac"/>
    <path id="Path_73" data-name="Path 73" d="M51.422,70.273c0,.485.011.911,0,1.335a1.313,1.313,0,1,1-2.625.029c-.024-.931-.034-1.865,0-2.794a1.313,1.313,0,0,1,1.6-1.359c.658.074,1.318.138,1.974.233A1.3,1.3,0,0,1,53.6,69.18a1.319,1.319,0,0,1-1.537,1.151c-.19-.014-.378-.034-.642-.058" transform="translate(9.821 13.586)" fill="#005cac"/>
    <path id="Path_74" data-name="Path 74" d="M44.535,56.285c0,.46.008.884,0,1.307a1.31,1.31,0,1,1-2.617-.008c-.011-.913-.013-1.825,0-2.737a1.283,1.283,0,0,1,1.492-1.355c.694.058,1.388.137,2.078.229a1.326,1.326,0,1,1-.3,2.63c-.193-.016-.386-.038-.654-.066" transform="translate(8.439 10.77)" fill="#005cac"/>
    <path id="Path_75" data-name="Path 75" d="M44.534,70.278c0,.463.006.871,0,1.277a1.3,1.3,0,0,1-1.3,1.408A1.282,1.282,0,0,1,41.92,71.58c-.011-.914-.016-1.828,0-2.743a1.292,1.292,0,0,1,1.493-1.362q1.043.094,2.082.241a1.317,1.317,0,1,1-.268,2.618c-.209-.011-.418-.034-.692-.056" transform="translate(8.439 13.585)" fill="#005cac"/>
    <path id="Path_76" data-name="Path 76" d="M44.535,77.288c0,.469.008.9,0,1.32a1.307,1.307,0,1,1-2.612.017c-.014-.95-.019-1.9,0-2.851a1.264,1.264,0,0,1,1.386-1.313c.75.056,1.5.149,2.243.261a1.291,1.291,0,0,1,1.183,1.41,1.321,1.321,0,0,1-1.457,1.193c-.228-.008-.455-.023-.741-.037" transform="translate(8.439 14.993)" fill="#005cac"/>
    <path id="Path_77" data-name="Path 77" d="M44.535,63.277c0,.508.011.936,0,1.364a1.306,1.306,0,1,1-2.612.026c-.018-.95-.02-1.9,0-2.851a1.288,1.288,0,0,1,1.521-1.331c.678.066,1.354.141,2.029.229a1.324,1.324,0,1,1-.272,2.629c-.193-.016-.387-.038-.664-.066" transform="translate(8.438 12.177)" fill="#005cac"/>
  </g>
</svg>
