<svg xmlns="http://www.w3.org/2000/svg" xmlns:xlink="http://www.w3.org/1999/xlink" width="126.198" height="100" viewBox="0 0 126.198 100">
  <defs>
    <clipPath id="clip-path">
      <rect id="Rectangle_35" data-name="Rectangle 35" width="126.198" height="100" fill="none"/>
    </clipPath>
  </defs>
  <g id="Group_21" data-name="Group 21" transform="translate(0 0)">
    <g id="Group_20" data-name="Group 20" transform="translate(0 0)" clip-path="url(#clip-path)">
      <path id="Path_52" data-name="Path 52" d="M125.45,94.673H108.259V49.891a.747.747,0,0,0-.22-.529L92.016,33.34a.748.748,0,0,0-1.276.528V94.673h-.827V33.868a.747.747,0,0,0-1.276-.528l-8.243,8.243a.747.747,0,1,0,1.056,1.058l6.968-6.968V40.99l-3.787,3.787a.747.747,0,0,0,1.057,1.057l2.73-2.73v6.745l-3.787,3.787a.747.747,0,0,0,1.057,1.058l2.73-2.73V59.2l-3.787,3.787a.747.747,0,0,0,1.057,1.057l2.73-2.729v7.741l-3.787,3.787A.747.747,0,0,0,85.688,73.9l2.73-2.731v23.5H79.056V29.456a.746.746,0,0,0-.218-.528L62.267,12.356a.755.755,0,0,0-.365-.365L57.473,7.563a.747.747,0,0,0-1.056,1.057l4.425,4.427V94.673H57.379V14.792a.747.747,0,1,0-1.495,0V94.673H53.2V18.542a.747.747,0,1,0-1.495,0V94.673H48.635V13.249L60.609,1.276A.748.748,0,0,0,59.551.218L47.36,12.411a.745.745,0,0,0-.22.529V94.673H37.779v-23.5l2.73,2.731a.747.747,0,0,0,1.057-1.058l-3.787-3.787V61.319l2.73,2.729a.747.747,0,0,0,1.057-1.057L37.779,59.2V51.962l2.73,2.73a.747.747,0,0,0,1.057-1.058l-3.787-3.787V43.1l2.73,2.73a.747.747,0,0,0,1.057-1.057L37.779,40.99V35.673l6.968,6.968A.748.748,0,1,0,45.8,41.583L37.56,33.34a.748.748,0,0,0-1.276.528V94.673h-.827V33.868a.747.747,0,0,0-1.276-.528L18.158,49.362a.751.751,0,0,0-.218.529V94.673H.747a.747.747,0,1,0,0,1.495h124.7a.747.747,0,1,0,0-1.495M92.236,52.16,106.75,66.675l.013.008v7.644L92.48,60.045a.759.759,0,0,0-.245-.164Zm14.527,12.414L92.48,50.292a.759.759,0,0,0-.245-.164V42.407L106.75,56.922l.013.008ZM92.236,61.913,106.75,76.429l.013.008v7.644L92.48,69.8a.759.759,0,0,0-.245-.164ZM106.763,50.2v4.62L92.48,40.539a.759.759,0,0,0-.245-.164v-4.7ZM92.236,71.667,106.75,86.182l.013.008v8.483H92.236ZM77.562,94.673H74.8V30.617a.747.747,0,1,0-1.495,0V94.673H70.615V26.63a.747.747,0,1,0-1.495,0V94.673H65.355V17.559L77.562,29.765ZM62.336,14.54l1.535,1.535a.815.815,0,0,0-.011.11V94.673H62.336Zm-42.9,52.143.013-.008L33.962,52.16v7.721a.751.751,0,0,0-.246.164L19.434,74.328ZM33.962,50.128a.751.751,0,0,0-.246.164L19.434,64.574V56.931l.013-.008L33.962,42.407ZM19.434,76.437l.013-.008L33.962,61.913v7.721a.751.751,0,0,0-.246.164L19.434,84.081ZM33.962,35.673v4.7a.751.751,0,0,0-.246.164L19.434,54.821V50.2ZM19.434,86.19l.013-.008L33.962,71.667V94.673H19.434Z" transform="translate(0 0)" fill="#005cac"/>
      <path id="Path_53" data-name="Path 53" d="M113.649,82.515H9.252a.747.747,0,1,0,0,1.495h104.4a.747.747,0,0,0,0-1.495" transform="translate(1.648 15.991)" fill="#005cac"/>
    </g>
  </g>
</svg>
