<svg id="Group_19" data-name="Group 19" xmlns="http://www.w3.org/2000/svg" xmlns:xlink="http://www.w3.org/1999/xlink" width="143" height="100.653" viewBox="0 0 143 100.653">
  <defs>
    <clipPath id="clip-path">
      <rect id="Rectangle_34" data-name="Rectangle 34" width="143" height="100.653" fill="none"/>
    </clipPath>
  </defs>
  <g id="Group_18" data-name="Group 18" transform="translate(0 0)" clip-path="url(#clip-path)">
    <path id="Path_51" data-name="Path 51" d="M103.961,50.328h1.783v50.158c20.341-.219,35.859-.645,37.256-1.278-4.807-.191-9.637-.385-14.564-.58V96.611c0-5.185-.018-10.369.006-15.554a1.715,1.715,0,0,0-.872-1.692c-3.934-2.48-7.827-5.022-11.74-7.536a3,3,0,0,0-.587-.209v.832c0,5.511.007,11.023-.007,16.533,0,.472.233,1.163-.638,1.174-1.25.015-2.5,0-3.88,0V48.234H100.085V81.852a15.809,15.809,0,0,0-1.757.01c-1.189.148-1.531-.334-1.511-1.511.069-3.835,0-7.675.05-11.511a1.6,1.6,0,0,0-1.1-1.749c-2.69-1.174-5.321-2.484-8.019-3.639a1.775,1.775,0,0,1-1.236-1.933q.062-7.776-.008-15.553a2.178,2.178,0,0,0-.605-1.555q-4.075-3.028-8.288-5.869a1.854,1.854,0,0,0-1.519-.066c-2.694,1.167-5.349,2.423-8.019,3.64-1.207.55-2.423,1.081-3.749,1.671V4.318c1.923.573,3.706,1.1,5.49,1.638,1.83.548,3.659,1.1,5.66,1.7,0-1.037-.068-1.9.018-2.744.1-.964-.324-1.328-1.2-1.6-3.185-1.005-6.35-2.075-9.5-3.175a1.715,1.715,0,0,0-1.883.349c-3.888,3.239-7.816,6.429-11.682,9.692a2.29,2.29,0,0,0-.608,1.576q-.066,8.2-.012,16.41a2.151,2.151,0,0,1-.843,1.879q-5.281,4.37-10.469,8.85a2.436,2.436,0,0,0-.81,1.6q-.056,26.087-.022,52.172c0,2.015,0,1.948-1.979,2.01-1.146.037-1.433-.354-1.427-1.468.043-8.04.021-16.082.014-24.125,0-.429-.04-.86-.065-1.365-2.3,0-4.464-.028-6.622.025a2.49,2.49,0,0,0-1.191.536c-3.8,2.6-7.585,5.243-11.4,7.826a2.1,2.1,0,0,0-1.076,1.976c.047,6.287.029,12.575.032,18.861v1.693L0,99.213c4.357,1.279,63.109,1.7,103.961,1.29Zm17.984,31.819V80.52c1.567.886,2.855,1.569,4.084,2.345a1.385,1.385,0,0,1,.435,1.026c.029,4.568,0,9.134.033,13.7.006.835-.33,1.016-1.091,1.018-3.463.008-3.463.028-3.463-3.373q0-6.546,0-13.091M26.883,98.392c-2.528-.008-5.056.118-7.583.23-.854.039-1.242-.177-1.236-1.138.037-5.631.007-11.263.037-16.895a1.548,1.548,0,0,1,.478-1.131c3.117-2.146,6.271-4.237,9.714-6.542V74.53c0,7.47-.022,14.938.026,22.407.008,1.126-.307,1.459-1.436,1.455m20.086-.4c-1.653-.079-3.315-.021-5.1-.021V96.077q0-25.29-.021-50.58a2.364,2.364,0,0,1,1.026-2.143c1.565-1.174,3.034-2.477,4.548-3.718.206-.169.447-.295.8-.525.044.45.1.753.1,1.058q.006,28.227.029,56.455c0,1.091-.327,1.418-1.39,1.365m8.294-.1H53.479V13.5h1.783Zm5.752,0H59.231V8.134h1.783ZM76.992,97.7a1.8,1.8,0,0,1-.486.162c-3.8.012-7.592,0-11.387.029-.72.006-.911-.313-.9-.961.022-1.632.006-3.266.006-4.9,0-13.956.019-27.914-.028-41.872a2.035,2.035,0,0,1,1.479-2.247c3.513-1.422,6.978-2.962,10.463-4.453.217-.093.447-.156.856-.3Zm5.025.417L81.01,45.035,82.795,45,83.8,98.078Zm12.314-1.859c0,.519-.051,1.038-.084,1.656-1.891,0-3.677.028-5.459-.037-.216-.007-.582-.514-.593-.8-.061-1.628-.042-3.261-.042-4.892q0-11.5.014-23c0-.361.036-.724.068-1.325,1.484.57,2.867,1.08,4.233,1.634,1.862.756,1.864.771,1.865,2.786q0,11.99,0,23.981" transform="translate(0 0)" fill="#005cac"/>
  </g>
</svg>
